<?xml version="1.0" standalone="no"?>
<!DOCTYPE svg PUBLIC "-//W3C//DTD SVG 20010904//EN"
 "http://www.w3.org/TR/2001/REC-SVG-20010904/DTD/svg10.dtd">
<svg xmlns="http://www.w3.org/2000/svg"
		 width="310.000000pt" height="310.000000pt" viewBox="0 0 310.000000 310.000000"
		 preserveAspectRatio="xMidYMid meet">
<metadata>
Created by potrace 1.11, written by Peter Selinger 2001-2013
</metadata>
<g transform="translate(0.000000,310.000000) scale(0.100000,-0.100000)"
fill="#000000" stroke="none">
<path d="M0 1550 l0 -1550 1253 1 1252 0 -51 20 c-71 27 -127 79 -163 151 -64
127 -30 281 81 369 157 124 389 66 470 -119 27 -61 28 -172 1 -234 -36 -80
-106 -143 -192 -174 -31 -11 -4 -13 207 -14 l242 0 0 1550 0 1550 -1550 0
-1550 0 0 -1550z m1450 932 c185 -40 285 -88 386 -184 112 -107 157 -228 158
-418 1 -137 -22 -223 -82 -315 -68 -103 -175 -186 -277 -215 -25 -7 -45 -16
-45 -20 0 -4 25 -12 55 -19 146 -33 306 -152 372 -276 52 -100 66 -171 60
-320 -4 -104 -10 -146 -31 -211 -62 -191 -189 -312 -401 -383 -185 -61 -227
-64 -822 -69 l-543 -4 0 1232 0 1232 538 -5 c495 -4 545 -6 632 -25z"/>
<path d="M778 2085 c-5 -5 -8 -134 -8 -288 l0 -279 218 5 c160 3 233 9 277 21
171 48 244 128 245 269 0 142 -68 218 -229 253 -74 16 -491 31 -503 19z"/>
<path d="M770 784 l0 -317 238 6 c295 7 382 23 479 89 119 80 136 300 31 414
-89 97 -204 124 -523 124 l-225 0 0 -316z"/>
</g>
</svg>
